<?xml version="1.0" encoding="UTF-8"?><svg id="Layer_1" xmlns="http://www.w3.org/2000/svg" xmlns:xlink="http://www.w3.org/1999/xlink" viewBox="0 0 416.61 383.92"><defs><style>.cls-1{fill:url(#radial-gradient);stroke:#c1272d;stroke-width:6.41px;}.cls-1,.cls-2,.cls-3{stroke-miterlimit:10;}.cls-2{fill:url(#radial-gradient-2);stroke:#1e7000;}.cls-2,.cls-3{stroke-width:4.43px;}.cls-3{fill:#fff;stroke:#ffcab1;}</style><radialGradient id="radial-gradient" cx="208.31" cy="194.25" fx="208.31" fy="194.25" r="196" gradientUnits="userSpaceOnUse"><stop offset="0" stop-color="#ff879f"/><stop offset=".22" stop-color="#ff5883"/><stop offset=".52" stop-color="#ff185d"/><stop offset=".77" stop-color="#df0017"/><stop offset="1" stop-color="#8f2a15"/></radialGradient><radialGradient id="radial-gradient-2" cx="193.23" cy="54.29" fx="193.23" fy="54.29" r="70.78" gradientUnits="userSpaceOnUse"><stop offset="0" stop-color="#8ce667"/><stop offset=".9" stop-color="#49c63f"/></radialGradient></defs><path class="cls-1" d="M198.59,81.39c-46.8-41.33-105.44-49.37-146-21.38C19.28,83,9.21,122.66,6.96,132.02c-16.21,67.59,24.35,127.28,39.54,149.63,11.04,16.25,68.98,101.51,163.24,99.01,108.99-2.9,164.81-120.46,174.39-140.63,10.88-22.91,48.24-101.6,17.24-171.01-3.8-8.51-17.16-38.41-45.62-52.88-44.94-22.84-109.46,1.98-157.15,65.25Z"/><path class="cls-2" d="M112.63,66.59l10.25-4.3c5.42-2.28,6.58-9.45,2.14-13.31l-2.67-2.33c-5.57-4.84-2.09-14,5.29-13.93l42.46,.39c2.14,.02,4.19-.82,5.7-2.34l26.12-26.21c3.57-3.58,9.54-2.96,12.29,1.28l9.86,15.2c1.87,2.89,5.39,4.24,8.72,3.35l29.33-7.86c8.36-2.24,13.77,8.61,6.94,13.93h0c-5.35,4.17-3.34,12.69,3.3,14.04h0c8.48,1.73,8.48,13.85,0,15.57l-29.76,6.03c-3.37,.68-5.92,3.46-6.31,6.88l-2.06,18c-.57,5.03-5.64,8.24-10.43,6.62l-35.06-11.83c-2.02-.68-4.24-.52-6.14,.45l-37.84,19.26c-6.58,3.35-13.76-3.3-10.94-10.12l1.36-3.27c2.25-5.43-1.98-11.34-7.85-10.97l-11.1,.72c-8.94,.58-11.84-11.78-3.58-15.25Z"/><circle class="cls-3" cx="50.41" cy="157.71" r="4"/><circle class="cls-3" cx="65.41" cy="212.71" r="4"/><circle class="cls-3" cx="184.41" cy="150.71" r="3"/><circle class="cls-3" cx="134.41" cy="212.71" r="4"/><circle class="cls-3" cx="184.41" cy="286.71" r="3"/><circle class="cls-3" cx="109.41" cy="263.71" r="5"/><circle class="cls-3" cx="292.41" cy="201.71" r="7"/><circle class="cls-3" cx="192.91" cy="207.21" r="5.5"/><circle class="cls-3" cx="258.91" cy="276.21" r="7.5"/><circle class="cls-3" cx="273.91" cy="120.21" r="7.5"/><ellipse class="cls-3" cx="88.91" cy="116.71" rx="3.5" ry="4"/><circle class="cls-3" cx="134.41" cy="311.71" r="4"/><circle class="cls-3" cx="70.91" cy="253.21" r="5.5"/><circle class="cls-3" cx="28.91" cy="183.21" r="6.5"/><circle class="cls-3" cx="240.91" cy="169.21" r="7.5"/><circle class="cls-3" cx="203.41" cy="333.71" r="5"/><circle class="cls-3" cx="323.91" cy="272.21" r="3.5"/><circle class="cls-3" cx="345.91" cy="46.21" r="4.5"/><circle class="cls-3" cx="384.41" cy="74.71" r="4"/><circle class="cls-3" cx="334.41" cy="134.71" r="7"/><circle class="cls-3" cx="387.91" cy="198.21" r="3.5"/><ellipse class="cls-3" cx="393.41" cy="138.71" rx="5" ry="3"/><circle class="cls-3" cx="323.91" cy="50.21" r="3.5"/><circle class="cls-3" cx="59.91" cy="90.21" r="5.5"/></svg>